<svg width="32" height="34" viewBox="0 0 32 34" fill="none" xmlns="http://www.w3.org/2000/svg">
<rect width="31.9286" height="33.1429" rx="9.71429" fill="#593377"/>
<path d="M14.2777 5.64307C9.79514 5.65157 7.44682 5.76692 5.94682 7.33092C4.32812 9.02242 4.32812 11.7412 4.32812 17.1788C4.32812 22.6164 4.32812 25.3351 5.94682 27.0254C7.56668 28.7145 10.171 28.7145 15.3843 28.7145C20.5954 28.7145 23.2009 28.7145 24.8195 27.0254C26.3207 25.459 26.4301 23.0098 26.4382 18.3311" stroke="white" stroke-width="1.82143" stroke-linecap="round" stroke-linejoin="round"/>
<path d="M14.8667 17.7858C14.0242 6.6945 21.5532 3.5495 27.5788 4.62779C27.822 8.30343 26.0974 9.67922 22.8158 10.3155C23.45 11.0076 24.5695 11.8771 24.4485 12.9626C24.3624 13.7374 23.8597 14.1162 22.8519 14.8764C20.6456 16.5399 18.0901 17.5891 14.8667 17.7858Z" stroke="white" stroke-width="1.82143" stroke-linecap="round" stroke-linejoin="round"/>
<path d="M12.4736 22.6429C14.801 15.9644 17.0818 13.7009 19.4558 11.7144" stroke="white" stroke-width="1.82143" stroke-linecap="round" stroke-linejoin="round"/>
</svg>
